<?xml version="1.0" encoding="UTF-8" standalone="no"?>
<!-- Created with Inkscape (http://www.inkscape.org/) -->

<svg
   width="500"
   height="500"
   viewBox="0 0 34290 34290.002"
   version="1.1"
   id="svg5"
   sodipodi:docname="icon_dark.svg"
   inkscape:version="1.1.1 (3bf5ae0d25, 2021-09-20)"
   xmlns:inkscape="http://www.inkscape.org/namespaces/inkscape"
   xmlns:sodipodi="http://sodipodi.sourceforge.net/DTD/sodipodi-0.dtd"
   xmlns="http://www.w3.org/2000/svg"
   xmlns:svg="http://www.w3.org/2000/svg">
  <sodipodi:namedview
     id="namedview7"
     pagecolor="#ffffff"
     bordercolor="#666666"
     borderopacity="1.0"
     inkscape:pageshadow="2"
     inkscape:pageopacity="0.0"
     inkscape:pagecheckerboard="0"
     inkscape:document-units="px"
     showgrid="false"
     units="px"
     inkscape:snap-grids="true"
     inkscape:snap-global="true"
     inkscape:zoom="0.71446409"
     inkscape:cx="154.66138"
     inkscape:cy="228.84285"
     inkscape:window-width="1920"
     inkscape:window-height="991"
     inkscape:window-x="-9"
     inkscape:window-y="-9"
     inkscape:window-maximized="1"
     inkscape:current-layer="layer2"
     width="720px" />
  <defs
     id="defs2" />
  <g
     inkscape:groupmode="layer"
     id="layer2"
     inkscape:label="Layer 2"
     style="display:inline">
    <path
       id="rect1372"
       style="opacity:1;fill:#ffffff;stroke-width:0;fill-opacity:0.70999998"
       d="m 2791.4921,3104.795 c 1622.8074,-4122.0592 26253.7239,-1903.9638 28157.6879,0 1903.964,1903.9638 4774.629,23882.902 0,27907.769 -4774.629,4024.867 -25677.7959,2575.88 -28157.6879,0 -2479.89194,-2575.88 -3005.9243,-20272.483 0,-27907.769 z"
       sodipodi:nodetypes="szzzs" />
  </g>
  <g
     inkscape:label="Layer 1"
     inkscape:groupmode="layer"
     id="layer1"
     style="display:inline">
    <path
       id="path35114"
       style="opacity:1;fill:#1b224a;stroke:#000000;stroke-width:0;stroke-miterlimit:4;stroke-dasharray:none"
       d="M 16786.179,3773.5689 C 9751.9827,3606.1447 4527.3129,12056.071 6099.5889,17450.41 7730.7322,23046.716 16080.08,29720.559 16949.609,30518.883 l 2479.223,-2561.484 -3462.984,-3450.54 C 14065.761,22782.48 9834.106,18667.143 9834.106,15453.243 c 0,-4164.545 2885.536,-7442.511 7050.098,-7442.511 4164.549,0 7246.465,3277.966 7246.465,7442.511 0,2425.596 -2475.725,5374.111 -4546.293,7419.214 l 2803.617,3014.566 C 25701.881,22910.446 28732.584,17885.349 28453.567,14362.309 27915.363,7567.5215 22661.767,3913.4109 16786.179,3773.5689 Z m 294.485,7647.2021 c -2030.577,0 -3676.819,1646.169 -3676.819,3676.734 0,2030.561 3676.819,4951.343 3676.819,4951.343 0,0 3676.482,-2920.782 3676.482,-4951.343 0,-2030.565 -1645.917,-3676.734 -3676.482,-3676.734 z" />
  </g>
</svg>
