<?xml version="1.0" encoding="UTF-8" standalone="no"?>
<!-- Created with Inkscape (http://www.inkscape.org/) -->

<svg
   width="500"
   height="500"
   viewBox="0 0 34290 34290.002"
   version="1.1"
   id="svg5"
   sodipodi:docname="icon_dark.svg"
   inkscape:version="1.1.1 (3bf5ae0d25, 2021-09-20)"
   xmlns:inkscape="http://www.inkscape.org/namespaces/inkscape"
   xmlns:sodipodi="http://sodipodi.sourceforge.net/DTD/sodipodi-0.dtd"
   xmlns="http://www.w3.org/2000/svg"
   xmlns:svg="http://www.w3.org/2000/svg">
  <sodipodi:namedview
     id="namedview7"
     pagecolor="#ffffff"
     bordercolor="#666666"
     borderopacity="1.0"
     inkscape:pageshadow="2"
     inkscape:pageopacity="0.0"
     inkscape:pagecheckerboard="0"
     inkscape:document-units="px"
     showgrid="false"
     units="px"
     inkscape:snap-grids="true"
     inkscape:snap-global="true"
     inkscape:zoom="1.0104048"
     inkscape:cx="236.04401"
     inkscape:cy="236.04401"
     inkscape:window-width="1920"
     inkscape:window-height="991"
     inkscape:window-x="-9"
     inkscape:window-y="-9"
     inkscape:window-maximized="1"
     inkscape:current-layer="layer3"
     width="720px" />
  <defs
     id="defs2" />
  <g
     inkscape:groupmode="layer"
     id="layer2"
     inkscape:label="Layer 2"
     style="display:inline">
    <path
       id="rect1372"
       style="opacity:1;fill:#1b224a;fill-opacity:1;stroke-width:0"
       d="M -1588.0057,-1229.666 H 35310.459 V 35341.299 H -1588.0057 Z"
       sodipodi:nodetypes="ccccc" />
  </g>
  <g
     inkscape:label="Layer 1"
     inkscape:groupmode="layer"
     id="layer1"
     style="display:inline">
    <path
       id="path35114"
       style="opacity:1;fill:#c7dfc1;fill-opacity:1;stroke:#000000;stroke-width:0;stroke-miterlimit:4;stroke-dasharray:none"
       d="M 16675.095,-365.97365 C 7463.2442,-585.22911 621.1153,10480.635 2680.1383,17544.959 4816.2526,24873.775 15750.4,33613.715 16889.119,34659.184 l 3246.744,-3354.471 -4535.058,-4518.762 C 13112.487,24527.737 7570.7912,19138.369 7570.7912,14929.506 c 0,-5453.8086 3778.8438,-9746.5709 9232.6748,-9746.5709 5453.815,0 9489.834,4292.7623 9489.834,9746.5709 0,3176.516 -3242.163,7037.835 -5953.74,9716.063 l 3671.564,3947.819 C 28350.929,24695.319 32319.88,18114.547 31954.485,13500.841 31249.664,4602.515 24369.653,-182.83913 16675.095,-365.97365 Z m 385.651,10014.63155 c -2659.205,0 -4815.092,2155.7911 -4815.092,4814.9811 0,2659.184 4815.092,6484.185 4815.092,6484.185 0,0 4814.652,-3825.001 4814.652,-6484.185 0,-2659.19 -2155.462,-4814.9811 -4814.652,-4814.9811 z" />
  </g>
  <g
     inkscape:groupmode="layer"
     id="layer3"
     inkscape:label="Layer 3"
     style="display:inline">
    <path
       id="path25500"
       style="fill:none;stroke:#ffffff;stroke-width:310.276;stroke-miterlimit:4;stroke-dasharray:none;stroke-opacity:1"
       d="m 12361.89,19442.176 a 658.8313,681.13659 0 0 1 -658.832,681.134 658.8313,681.13659 0 0 1 -658.829,-681.134 658.8313,681.13659 0 0 1 658.829,-681.135 658.8313,681.13659 0 0 1 658.832,681.135 z m -1939.062,-936.564 c -132.024,91.445 -117.329,1733.505 22.461,1896.347 139.791,162.844 2249.839,141.447 2508.051,7.742 197.04,-102.032 130.869,-1822.967 0,-1904.089 -132.737,-82.277 -666.319,0 -666.319,0 l -196.328,-408.804 h -791.917 l -173.593,401.107 c 0,0 -541.587,-103.651 -702.355,7.697 z" />
    <path
       style="fill:none;stroke:#ffffff;stroke-width:355.743;stroke-linecap:butt;stroke-linejoin:miter;stroke-miterlimit:4;stroke-dasharray:none;stroke-dashoffset:0;stroke-opacity:1"
       d="m 16738.29,25956.534 619.843,-495.874 c 0,0 916.039,113.359 1100.22,-15.496 129.571,-90.649 131.416,-1861.883 -7.748,-2068.724 -139.164,-206.843 -2385.664,-229.06 -2587.843,0 -202.177,229.061 -246.783,1974.288 -15.496,2068.724 231.289,94.436 891.024,0 891.024,0 z"
       id="path22856"
       sodipodi:nodetypes="ccszzzcc" />
    <path
       id="path27798"
       style="fill:none;fill-opacity:1;stroke:#ffffff;stroke-width:240.559;stroke-miterlimit:4;stroke-dasharray:none;stroke-opacity:1"
       d="m 10264.987,11276.456 a 674.15614,674.15614 0 0 0 -674.1502,674.15 674.15614,674.15614 0 0 0 674.1502,674.151 674.15614,674.15614 0 0 0 674.153,-674.151 674.15614,674.15614 0 0 0 -674.153,-674.15 z m -431.1952,1654.894 c -737.548,80.591 -772.439,600.036 -619.044,1049.977 l 2115.6132,7.829 c 183.894,-476.482 69.119,-945.401 -470.123,-1057.806 -353.344,61.554 -713.158,158.769 -1026.4462,0 z" />
    <g
       id="g1621"
       transform="matrix(0.54456583,0,0,0.54456583,7086.3409,-9156.7697)"
       style="stroke:#ffffff;stroke-opacity:1">
      <path
         id="path29434"
         style="fill:none;stroke:#ffffff;stroke-width:411.48;stroke-linecap:butt;stroke-linejoin:miter;stroke-miterlimit:4;stroke-dasharray:none;stroke-opacity:1"
         d="m 20050.657,31730.114 h -1315.831 v 1477.78 m -2894.829,-40.489 c -310.516,-271.451 -306.568,-3985.067 0,-4251.148 306.567,-266.08 4190.418,0 4190.418,0 v 3259.216 l -1072.909,991.934 c 0,0 -2795.681,281.34 -3117.509,0 z"
         sodipodi:nodetypes="cccsscccs" />
      <path
         style="fill:none;stroke:#ffffff;stroke-width:68.58px;stroke-linecap:butt;stroke-linejoin:miter;stroke-miterlimit:4;stroke-dasharray:none;stroke-opacity:1"
         d="m 16510.596,29879.996 2443.455,-67.874"
         id="path30189" />
      <path
         style="fill:none;stroke:#ffffff;stroke-width:68.58px;stroke-linecap:butt;stroke-linejoin:miter;stroke-miterlimit:4;stroke-dasharray:none;stroke-opacity:1"
         d="m 16612.405,30762.355 h 1662.91"
         id="path30191" />
      <path
         style="fill:none;stroke:#ffffff;stroke-width:68.58px;stroke-linecap:butt;stroke-linejoin:miter;stroke-miterlimit:4;stroke-dasharray:none;stroke-opacity:1"
         d="m 16510.596,31882.273 h 1052.042"
         id="path30193" />
      <circle
         id="path30197"
         style="fill:#ffffff;stroke:#ffffff;stroke-width:68.58;stroke-miterlimit:4;stroke-dasharray:none;stroke-opacity:1"
         cx="19564.914"
         cy="30694.482"
         r="102.87" />
    </g>
    <g
       id="g37318"
       transform="matrix(3.4129896,0,0,3.4129896,13885.37,2711.9064)"
       style="stroke:#ffffff;stroke-width:58.0625;stroke-miterlimit:4;stroke-dasharray:none;stroke-opacity:1">
      <circle
         style="opacity:1;fill:none;fill-opacity:1;stroke:#ffffff;stroke-width:58.0625;stroke-miterlimit:4;stroke-dasharray:none;stroke-opacity:1"
         id="path30333"
         cx="2747.9456"
         cy="2700.8113"
         r="301.66129" />
      <path
         style="fill:#000000;fill-opacity:0.568627;stroke:#ffffff;stroke-width:58.0625;stroke-linecap:butt;stroke-linejoin:miter;stroke-miterlimit:4;stroke-dasharray:none;stroke-opacity:1"
         d="m 2945.9109,2931.7706 202.6787,199.9175 c 23.5782,-9.7132 34.1267,-21.5981 31.0419,-35.7552 l -199.6318,-202.9646 z"
         id="path30448"
         sodipodi:nodetypes="ccccc" />
    </g>
    <path
       id="path37388"
       style="fill:none;fill-opacity:1;stroke:#ffffff;stroke-width:197.947;stroke-linecap:butt;stroke-linejoin:miter;stroke-miterlimit:4;stroke-dasharray:none;stroke-opacity:1"
       d="m 23186.171,17430.906 -235.421,5.881 v 311.934 h -741.579 v -294.292 h -247.216 l 5.883,306.054 c 0,0 -333.722,-82.451 -464.962,0 -142.492,89.52 -109.239,2086.145 0,2177.725 109.236,91.581 1931.702,122.396 2095.298,0 163.596,-122.395 193.5,-1973.131 41.196,-2148.29 -92.313,-106.167 -453.199,-41.197 -453.199,-41.197 z"
       sodipodi:nodetypes="cccccccsssscc" />
    <path
       style="fill:none;fill-opacity:1;stroke:#ffffff;stroke-width:131.965;stroke-linecap:butt;stroke-linejoin:miter;stroke-miterlimit:4;stroke-dasharray:none;stroke-opacity:1"
       d="m 21979.975,18771.908 423.772,459.082 806.339,-782.797 -170.685,-200.115 -617.997,594.456 -270.743,-247.2 z"
       id="path45359"
       sodipodi:nodetypes="ccccccc" />
    <g
       id="g2947"
       transform="translate(-335.95811,431.94614)">
      <path
         d="m 15257.625,14201.686 q 6.429,5.001 6.429,35.006 0,30.72 -6.429,46.437 l 9.287,30.006 q 23.576,84.301 46.437,138.596 28.577,72.871 56.439,156.457 63.583,192.178 132.167,329.346 69.298,136.453 126.451,192.177 35.721,35.006 44.294,48.581 9.287,12.859 9.287,30.719 0,31.434 -21.432,52.867 -20.718,22.147 -50.009,22.147 -91.446,0 -221.469,-287.909 -52.152,-113.592 -62.868,-113.592 -34.292,0 -147.884,20.718 -112.878,20.718 -206.466,48.58 -53.581,16.431 -67.87,16.431 -17.86,0 -37.149,-17.86 -3.572,-2.858 -8.573,-2.858 -15.717,0 -67.87,92.874 -85.729,153.6 -108.591,183.605 -22.147,29.291 -49.294,29.291 -19.29,0 -46.437,-22.861 -27.148,-22.147 -27.148,-45.723 0,-22.861 25.719,-61.44 25.719,-39.292 105.019,-157.171 141.454,-209.324 238.614,-392.928 153.6,-292.196 195.036,-344.348 41.436,-52.867 63.583,-52.867 47.151,0 70.727,25.719 z m 43.579,567.96 q -25.005,-57.153 -73.585,-209.324 -52.866,-162.172 -67.155,-197.178 -39.293,82.872 -121.45,235.042 l -129.309,245.045 q 15.002,-11.431 79.3,-18.575 49.294,-5.001 85.729,-12.86 195.036,-39.292 226.47,-42.15 z"
         id="path15648"
         style="font-size:462.862px;line-height:578.596px;font-family:'Segoe Print';-inkscape-font-specification:'Segoe Print';stroke:none;stroke-width:36.5782;stroke-miterlimit:4;stroke-dasharray:none;stroke-opacity:1" />
      <path
         d="m 16126.287,15279.387 q -97.874,0 -161.457,-74.299 -63.583,-74.299 -63.583,-183.604 0,-184.319 123.593,-362.923 124.309,-179.318 297.197,-179.318 114.307,0 185.034,87.873 71.441,87.873 71.441,209.323 0,185.748 -147.169,344.348 -146.455,158.6 -305.056,158.6 z m -99.303,-276.478 q 0,72.156 30.005,117.878 30.72,45.723 80.729,45.723 106.448,0 213.61,-116.45 107.163,-117.164 107.163,-260.047 0,-87.873 -41.437,-142.168 -40.721,-55.01 -110.02,-55.01 -115.02,0 -197.892,141.454 -82.158,140.74 -82.158,268.62 z"
         id="path15650"
         style="font-size:462.862px;line-height:578.596px;font-family:'Segoe Print';-inkscape-font-specification:'Segoe Print';stroke:none;stroke-width:36.5782;stroke-miterlimit:4;stroke-dasharray:none;stroke-opacity:1" />
      <path
         d="m 17133.434,15040.993 c 0,36.197 5.001,76.919 15.002,122.165 1.906,8.573 2.858,15.717 2.858,21.432 0,8.573 -7.859,19.528 -23.576,32.864 -15.717,13.812 -32.386,20.718 -50.009,20.718 -46.198,0 -69.298,-42.389 -69.298,-127.167 0,-87.634 18.098,-226.231 54.296,-415.789 12.383,-66.202 18.574,-106.924 18.574,-122.165 0,-30.005 5.477,-55.486 16.432,-76.442 10.955,-21.433 26.433,-32.149 46.437,-32.149 24.29,0 43.341,5.954 57.153,17.86 14.288,11.431 21.433,24.291 21.433,38.579 0,14.288 -3.334,33.101 -10.002,56.438 -35.721,125.738 -57.868,215.754 -66.441,270.049 -8.573,54.296 -12.859,118.832 -12.859,193.607 z"
         id="path15652"
         style="font-size:462.862px;line-height:578.596px;font-family:'Segoe Print';-inkscape-font-specification:'Segoe Print';stroke:none;stroke-width:36.5782;stroke-miterlimit:4;stroke-dasharray:none;stroke-opacity:1"
         sodipodi:nodetypes="scscsscscscscss" />
      <path
         d="m 18135.126,14883.992 q -8.573,-6.429 -47.866,40.008 -65.012,76.442 -166.459,135.739 -100.732,59.296 -187.177,59.296 -64.297,0 -100.732,-40.007 -36.435,-40.722 -36.435,-112.163 0,-110.735 83.586,-246.473 83.587,-136.454 233.614,-237.901 150.742,-101.447 263.619,-101.447 59.297,0 104.305,34.292 10.716,8.573 18.575,14.289 12.859,9.287 24.29,37.863 11.43,27.863 11.43,45.009 0,10.716 -7.858,32.863 -43.58,118.593 -59.297,196.464 -15.717,77.871 -34.292,262.19 -17.146,165.745 -37.149,255.046 -20.004,89.302 -72.156,172.889 -52.152,83.587 -125.023,125.023 -72.87,42.15 -150.027,42.15 -133.595,0 -263.619,-92.16 -130.024,-92.159 -130.024,-147.883 0,-35.007 26.434,-35.007 12.859,0 76.442,42.151 167.888,112.163 302.198,112.163 117.164,0 177.889,-125.023 61.44,-125.022 83.587,-373.639 5,-56.439 12.145,-95.732 z m -1.429,-392.213 q -60.725,0 -152.171,62.868 -90.73,62.869 -176.46,184.319 -85.73,121.451 -85.73,203.609 0,27.862 17.146,44.293 17.86,15.718 39.293,15.718 63.583,0 165.744,-65.727 102.876,-65.726 176.461,-182.176 74.299,-117.164 74.299,-183.604 0,-79.3 -58.582,-79.3 z"
         id="path15654"
         style="font-size:462.862px;line-height:578.596px;font-family:'Segoe Print';-inkscape-font-specification:'Segoe Print';stroke:none;stroke-width:36.5782;stroke-miterlimit:4;stroke-dasharray:none;stroke-opacity:1" />
      <path
         d="m 18740.488,15025.97 q 265.763,-490.803 437.937,-490.803 45.722,0 74.299,52.152 28.576,52.153 46.437,231.471 17.86,190.749 80.729,275.764 32.148,43.579 32.148,64.298 0,18.574 -21.432,34.291 -21.433,15.718 -45.723,15.718 -55.724,0 -98.589,-62.154 -42.865,-62.869 -55.01,-220.04 -12.145,-148.599 -25.719,-194.321 -13.574,-45.723 -45.008,-45.723 -75.013,0 -302.197,392.214 -67.87,117.164 -100.019,153.599 -32.148,35.721 -58.582,35.721 -31.434,0 -52.866,-18.575 -21.433,-18.575 -21.433,-45.722 0,-20.004 11.431,-77.157 87.873,-453.654 138.596,-897.305 11.431,-103.591 36.435,-137.882 25.719,-34.292 42.865,-34.292 30.72,0 55.725,25.004 25.004,25.005 25.004,69.298 0,131.453 -64.297,360.78 -31.434,113.592 -66.441,288.624 -35.006,175.031 -35.006,216.468 0,8.572 7.859,8.572 z"
         id="path15656"
         style="font-size:462.862px;line-height:578.596px;font-family:'Segoe Print';-inkscape-font-specification:'Segoe Print';stroke:none;stroke-width:36.5782;stroke-miterlimit:4;stroke-dasharray:none;stroke-opacity:1" />
      <path
         d="m 19908.464,14478.748 q 73.585,-5.715 138.597,-13.573 64.297,-7.145 107.162,-7.145 54.296,0 68.584,10.002 14.288,10.002 14.288,35.006 0,57.868 -80.729,62.869 -103.59,6.43 -190.748,17.86 -87.159,11.431 -94.303,19.29 -6.43,7.144 -42.865,170.03 -36.435,162.173 -36.435,210.753 0,78.585 20.718,105.019 20.718,25.719 62.154,25.719 61.439,0 170.745,-92.16 42.15,-37.864 65.012,-37.864 30.719,0 30.719,32.863 0,51.438 -99.303,133.596 -98.589,81.443 -202.18,81.443 -172.888,0 -172.888,-203.608 0,-73.585 35.721,-227.898 35.006,-153.6 35.006,-184.32 0,-10.716 -17.146,-10.716 l -74.299,6.43 q -91.445,0 -91.445,-72.87 0,-41.436 42.15,-41.436 h 147.17 q 15.002,0 26.433,-13.574 11.431,-13.574 33.578,-90.731 22.146,-77.871 39.292,-153.599 17.147,-75.014 67.155,-75.014 30.72,0 47.866,21.433 17.146,21.432 17.146,40.007 0,10.002 -25.719,102.161 z"
         id="path15658"
         style="font-size:462.862px;line-height:578.596px;font-family:'Segoe Print';-inkscape-font-specification:'Segoe Print';stroke:none;stroke-width:36.5782;stroke-miterlimit:4;stroke-dasharray:none;stroke-opacity:1" />
      <path
         id="path16370"
         style="fill:#1b224a;fill-opacity:1;stroke:#000000;stroke-width:0;stroke-miterlimit:4;stroke-dasharray:none;stroke-opacity:1"
         d="m 17144.521,13968.92 c -111.937,-2.665 -195.078,131.801 -170.058,217.643 25.956,89.055 158.821,195.257 172.658,207.962 l 39.453,-40.762 -55.108,-54.909 c -30.236,-27.441 -97.575,-92.929 -97.575,-144.073 0,-66.271 45.918,-118.434 112.19,-118.434 66.271,0 115.314,52.163 115.314,118.434 0,38.599 -39.396,85.52 -72.346,118.064 l 44.615,47.972 c 52.734,-47.367 100.963,-127.333 96.522,-183.396 -8.564,-108.127 -92.166,-166.276 -185.665,-168.501 z m 4.686,121.691 c -32.313,0 -58.51,26.197 -58.51,58.51 0,32.312 58.51,78.791 58.51,78.791 0,0 58.505,-46.479 58.505,-78.791 0,-32.313 -26.192,-58.51 -58.505,-58.51 z" />
    </g>
  </g>
</svg>
