<?xml version="1.0" encoding="UTF-8" standalone="no"?>
<!-- Created with Inkscape (http://www.inkscape.org/) -->

<svg
   width="1080"
   height="1080"
   viewBox="0 0 92583 92583.005"
   version="1.1"
   id="svg5"
   sodipodi:docname="icon_red.svg"
   inkscape:version="1.1.1 (3bf5ae0d25, 2021-09-20)"
   xmlns:inkscape="http://www.inkscape.org/namespaces/inkscape"
   xmlns:sodipodi="http://sodipodi.sourceforge.net/DTD/sodipodi-0.dtd"
   xmlns="http://www.w3.org/2000/svg"
   xmlns:svg="http://www.w3.org/2000/svg">
  <sodipodi:namedview
     id="namedview7"
     pagecolor="#ffffff"
     bordercolor="#666666"
     borderopacity="1.0"
     inkscape:pageshadow="2"
     inkscape:pageopacity="0.0"
     inkscape:pagecheckerboard="0"
     inkscape:document-units="px"
     showgrid="false"
     units="px"
     inkscape:snap-grids="true"
     inkscape:snap-global="true"
     inkscape:zoom="0.5052024"
     inkscape:cx="588.87289"
     inkscape:cy="444.37635"
     inkscape:window-width="1920"
     inkscape:window-height="991"
     inkscape:window-x="-9"
     inkscape:window-y="-9"
     inkscape:window-maximized="1"
     inkscape:current-layer="layer1"
     width="720px" />
  <defs
     id="defs2">
    <filter
       inkscape:collect="always"
       style="color-interpolation-filters:sRGB"
       id="filter1039"
       x="-0.020221047"
       y="-0.017125352"
       width="1.0404421"
       height="1.0342507">
      <feGaussianBlur
         inkscape:collect="always"
         stdDeviation="628.77425"
         id="feGaussianBlur1041" />
    </filter>
  </defs>
  <g
     inkscape:label="Layer 2"
     inkscape:groupmode="layer"
     id="layer1"
     style="display:inline;filter:url(#filter1039)">
    <path
       id="path35114"
       style="opacity:1;fill:#C7DFC1;fill-opacity:1;stroke:#000000;stroke-width:0;stroke-miterlimit:4;stroke-dasharray:none"
       d="M 45109.396,2240.3874 C 21935.792,1688.8212 4723.5357,29526.424 9903.2895,47297.65 15276.94,65734.208 42783.203,87720.664 45647.782,90350.688 L 53815.399,81912.061 42406.86,70544.548 C 36147.19,64863.714 22206.35,51306.079 22206.35,40718.117 c 0,-13719.767 9506.145,-24518.761 23225.965,-24518.761 13719.766,0 23872.924,10798.994 23872.924,24518.761 0,7990.931 -8156.08,17704.589 -14977.411,24442.01 l 9236.298,9931.26 C 74481.462,65285.282 84465.879,48730.507 83546.657,37124.132 81773.599,14739.246 64466.043,2701.0789 45109.396,2240.3874 Z m 970.155,25193.0716 c -6689.581,0 -12112.992,5423.187 -12112.992,12112.714 0,6689.524 12112.992,16311.79 12112.992,16311.79 0,0 12111.878,-9622.266 12111.878,-16311.79 0,-6689.527 -5422.351,-12112.714 -12111.878,-12112.714 z" />
  </g>
  <g
     inkscape:label="Layer 1"
     inkscape:groupmode="layer"
     id="g1037"
     style="display:inline">
    <path
       id="path1035"
       style="opacity:1;fill:#C7DFC1;fill-opacity:1;stroke:#000000;stroke-width:0;stroke-miterlimit:4;stroke-dasharray:none"
       d="M 45109.396,2240.3874 C 21935.792,1688.8212 4723.5357,29526.424 9903.2895,47297.65 15276.94,65734.208 42783.203,87720.664 45647.782,90350.688 L 53815.399,81912.061 42406.86,70544.548 C 36147.19,64863.714 22206.35,51306.079 22206.35,40718.117 c 0,-13719.767 9506.145,-24518.761 23225.965,-24518.761 13719.766,0 23872.924,10798.994 23872.924,24518.761 0,7990.931 -8156.08,17704.589 -14977.411,24442.01 l 9236.298,9931.26 C 74481.462,65285.282 84465.879,48730.507 83546.657,37124.132 81773.599,14739.246 64466.043,2701.0789 45109.396,2240.3874 Z m 970.155,25193.0716 c -6689.581,0 -12112.992,5423.187 -12112.992,12112.714 0,6689.524 12112.992,16311.79 12112.992,16311.79 0,0 12111.878,-9622.266 12111.878,-16311.79 0,-6689.527 -5422.351,-12112.714 -12111.878,-12112.714 z" />
  </g>
</svg>
