<?xml version="1.0" encoding="UTF-8" standalone="no"?>
<!-- Created with Inkscape (http://www.inkscape.org/) -->

<svg
   width="740"
   height="500"
   viewBox="0 0 3524.25 2381.2501"
   version="1.1"
   id="svg5"
   sodipodi:docname="logo_dark.svg"
   inkscape:version="1.1.1 (3bf5ae0d25, 2021-09-20)"
   xmlns:inkscape="http://www.inkscape.org/namespaces/inkscape"
   xmlns:sodipodi="http://sodipodi.sourceforge.net/DTD/sodipodi-0.dtd"
   xmlns="http://www.w3.org/2000/svg"
   xmlns:svg="http://www.w3.org/2000/svg">
  <sodipodi:namedview
     id="namedview7"
     pagecolor="#ffffff"
     bordercolor="#666666"
     borderopacity="1.0"
     inkscape:pageshadow="2"
     inkscape:pageopacity="0.0"
     inkscape:pagecheckerboard="0"
     inkscape:document-units="px"
     showgrid="false"
     units="px"
     inkscape:snap-grids="true"
     inkscape:snap-global="true"
     inkscape:zoom="1.0104048"
     inkscape:cx="352.82889"
     inkscape:cy="267.71448"
     inkscape:window-width="1920"
     inkscape:window-height="991"
     inkscape:window-x="-9"
     inkscape:window-y="-9"
     inkscape:window-maximized="1"
     inkscape:current-layer="g59277"
     width="740px"
     height="500px" />
  <defs
     id="defs2" />
  <g
     inkscape:label="Layer 1"
     inkscape:groupmode="layer"
     id="layer1">
    <g
       id="g50185"
       transform="matrix(0.5098525,0,0,0.5098525,1911.5869,897.87856)"
       style="stroke:#000000;stroke-width:28.0228;stroke-miterlimit:4;stroke-dasharray:none;stroke-opacity:1">
      <g
         id="g59277"
         transform="translate(51.807905,-622.62537)"
         style="stroke:#000000;stroke-opacity:1">
        <g
           id="g869"
           transform="translate(-6.578738,-1163.2679)">
          <g
             id="g22717"
             transform="matrix(3.5898928,0,0,3.5898928,-6600.4801,-6145.694)"
             style="stroke:#000000;stroke-opacity:1">
            <path
               d="m 1065.4219,1977.7539 q 2.0341,1.5821 2.0341,11.0743 0,9.7183 -2.0341,14.6905 l 2.9381,9.4923 q 7.4583,26.6688 14.6905,43.8453 9.0402,23.0527 17.8545,49.4955 20.1146,60.7958 41.8113,104.1892 21.9226,43.1673 40.0032,60.7958 11.3003,11.0743 14.0124,15.3685 2.9381,4.0681 2.9381,9.7182 0,9.9443 -6.7802,16.7246 -6.5542,7.0062 -15.8205,7.0062 -28.9289,0 -70.0621,-91.0808 -16.4985,-35.9351 -19.8886,-35.9351 -10.8483,0 -46.7834,6.5542 -35.7091,6.5542 -65.31601,15.3685 -16.9505,5.1981 -21.4706,5.1981 -5.6502,0 -11.7524,-5.6501 -1.13,-0.9041 -2.7121,-0.9041 -4.9721,0 -21.4706,29.3809 -27.1208,48.5915 -34.3531,58.0838 -7.0062,9.2663 -15.5944,9.2663 -6.1022,0 -14.6905,-7.2322 -8.5882,-7.0063 -8.5882,-14.4645 0,-7.2322 8.1362,-19.4366 8.1363,-12.4303 33.223,-49.7215 44.7494,-66.22 75.4863,-124.3037 48.59151,-92.4368 61.69991,-108.9353 13.1084,-16.7245 20.1146,-16.7245 14.9164,0 22.3746,8.1362 z m 13.7865,179.6754 q -7.9103,-18.0805 -23.2787,-66.22 -16.7245,-51.3035 -21.2447,-62.3778 -12.4304,26.2167 -38.42114,74.3562 l -40.90727,77.5203 q 4.7462,-3.6161 25.08677,-5.8761 15.5944,-1.5821 27.12084,-4.0682 61.6999,-12.4303 71.6442,-13.3344 z"
               id="path15648"
               style="font-size:462.862px;line-height:578.596px;font-family:'Segoe Print';-inkscape-font-specification:'Segoe Print';stroke:none;stroke-width:11.5716;stroke-opacity:1" />
            <path
               d="m 1340.2254,2318.6872 q -30.9629,0 -51.0775,-23.5047 -20.1146,-23.5047 -20.1146,-58.0837 0,-58.3098 39.0991,-114.8115 39.3252,-56.7277 94.0189,-56.7277 36.1611,0 58.5358,27.7988 22.6006,27.7989 22.6006,66.22 0,58.7618 -46.5574,108.9353 -46.3314,50.1735 -96.5049,50.1735 z m -31.4149,-87.4646 q 0,22.8267 9.4923,37.2911 9.7182,14.4645 25.5387,14.4645 33.675,0 67.5761,-36.8392 33.901,-37.0651 33.901,-82.2664 0,-27.7989 -13.1084,-44.9754 -12.8824,-17.4025 -34.8051,-17.4025 -36.3871,0 -62.6038,44.7493 -25.9908,44.5234 -25.9908,84.9786 z"
               id="path15650"
               style="font-size:462.862px;line-height:578.596px;font-family:'Segoe Print';-inkscape-font-specification:'Segoe Print';stroke:none;stroke-width:11.5716;stroke-opacity:1" />
            <path
               d="m 1658.8384,2243.2706 c 0,11.451 1.5821,24.3334 4.7462,38.6471 0.6027,2.7121 0.904,4.9722 0.904,6.7802 0,2.7121 -2.4861,6.1776 -7.4582,10.3964 -4.9721,4.3695 -10.2456,6.5542 -15.8205,6.5542 -14.6151,0 -21.9227,-13.4098 -21.9227,-40.2293 0,-27.7235 5.7255,-71.5688 17.1766,-131.5359 3.9174,-20.9433 5.8761,-33.8257 5.8761,-38.6472 0,-9.4923 1.7327,-17.5532 5.1982,-24.1827 3.4655,-6.7802 8.3623,-10.1703 14.6904,-10.1703 7.6843,0 13.7111,1.8834 18.0806,5.6501 4.5201,3.6161 6.7802,7.6843 6.7802,12.2044 0,4.5201 -1.0547,10.4716 -3.1641,17.8545 -11.3003,39.7772 -18.3065,68.2541 -21.0186,85.4306 -2.7121,17.1765 -4.0682,37.5925 -4.0682,61.2479 z"
               id="path15652"
               style="font-size:462.862px;line-height:578.596px;font-family:'Segoe Print';-inkscape-font-specification:'Segoe Print';stroke:none;stroke-width:11.5716;stroke-opacity:1"
               sodipodi:nodetypes="scscsscscscscss" />
            <path
               d="m 1975.726,2193.6031 q -2.7121,-2.034 -15.1425,12.6564 -20.5666,24.1827 -52.6596,42.9413 -31.8669,18.7586 -59.2138,18.7586 -20.3406,0 -31.8669,-12.6564 -11.5264,-12.8824 -11.5264,-35.4831 0,-35.031 26.4428,-77.9723 26.4428,-43.1674 73.9043,-75.2603 47.6874,-32.093 83.3965,-32.093 18.7586,0 32.997,10.8483 3.3901,2.7121 5.8762,4.5202 4.0681,2.9381 7.6842,11.9783 3.6161,8.8143 3.6161,14.2385 0,3.3901 -2.4861,10.3963 -13.7864,37.5171 -18.7585,62.1519 -4.9722,24.6347 -10.8484,82.9445 -5.4241,52.4336 -11.7523,80.6844 -6.3282,28.2509 -22.8267,54.6937 -16.4985,26.4428 -39.5512,39.5512 -23.0527,13.3344 -47.4614,13.3344 -42.2633,0 -83.3966,-29.1549 -41.1332,-29.1549 -41.1332,-46.7834 0,-11.0744 8.3622,-11.0744 4.0682,0 24.1828,13.3344 53.1116,35.4831 95.6009,35.4831 37.0651,0 56.2757,-39.5512 19.4366,-39.5512 26.4428,-118.2016 1.582,-17.8545 3.8421,-30.2849 z m -0.452,-124.0777 q -19.2106,0 -48.1395,19.8886 -28.7029,19.8886 -55.8237,58.3097 -27.1208,38.4212 -27.1208,64.412 0,8.8142 5.4242,14.0124 5.6501,4.9722 12.4303,4.9722 20.1147,0 52.4336,-20.7927 32.545,-20.7926 55.8237,-57.6317 23.5047,-37.0651 23.5047,-58.0838 0,-25.0867 -18.5325,-25.0867 z"
               id="path15654"
               style="font-size:462.862px;line-height:578.596px;font-family:'Segoe Print';-inkscape-font-specification:'Segoe Print';stroke:none;stroke-width:11.5716;stroke-opacity:1" />
            <path
               d="m 2167.2338,2238.5181 q 84.0746,-155.2667 138.5422,-155.2667 14.4645,0 23.5047,16.4985 9.0403,16.4985 14.6905,73.2263 5.6501,60.3438 25.5388,87.2386 10.1703,13.7864 10.1703,20.3406 0,5.8762 -6.7802,10.8483 -6.7803,4.9722 -14.4645,4.9722 -17.6285,0 -31.1889,-19.6626 -13.5604,-19.8886 -17.4026,-69.6101 -3.8421,-47.0094 -8.1362,-61.4739 -4.2941,-14.4644 -14.2384,-14.4644 -23.7307,0 -95.6009,124.0777 -21.4707,37.0652 -31.641,48.5915 -10.1703,11.3004 -18.5325,11.3004 -9.9443,0 -16.7245,-5.8762 -6.7802,-5.8762 -6.7802,-14.4645 0,-6.3281 3.6161,-24.4087 27.7988,-143.5143 43.8453,-283.8646 3.6161,-32.771 11.5263,-43.6193 8.1363,-10.8483 13.5604,-10.8483 9.7183,0 17.6286,7.9102 7.9102,7.9103 7.9102,21.9227 0,41.5852 -20.3406,114.1334 -9.9443,35.9351 -21.0186,91.3068 -11.0744,55.3717 -11.0744,68.4801 0,2.712 2.4861,2.712 z"
               id="path15656"
               style="font-size:462.862px;line-height:578.596px;font-family:'Segoe Print';-inkscape-font-specification:'Segoe Print';stroke:none;stroke-width:11.5716;stroke-opacity:1" />
            <path
               d="m 2536.7257,2065.4032 q 23.2787,-1.8081 43.8453,-4.2941 20.3407,-2.2601 33.9011,-2.2601 17.1765,0 21.6966,3.1641 4.5202,3.1641 4.5202,11.0743 0,18.3066 -25.5388,19.8886 -32.771,2.0341 -60.3438,5.6502 -27.5729,3.6161 -29.8329,6.1022 -2.0341,2.2601 -13.5604,53.7896 -11.5264,51.3036 -11.5264,66.672 0,24.8608 6.5542,33.223 6.5542,8.1363 19.6626,8.1363 19.4366,0 54.0156,-29.1549 13.3344,-11.9784 20.5667,-11.9784 9.7182,0 9.7182,10.3963 0,16.2725 -31.4149,42.2633 -31.1889,25.7648 -63.9599,25.7648 -54.6937,0 -54.6937,-64.4119 0,-23.2787 11.3003,-72.0962 11.0744,-48.5915 11.0744,-58.3098 0,-3.3901 -5.4242,-3.3901 l -23.5047,2.0341 q -28.9289,0 -28.9289,-23.0527 0,-13.1084 13.3344,-13.1084 h 46.5574 q 4.7462,0 8.3623,-4.2942 3.6161,-4.2941 10.6223,-28.7028 7.0062,-24.6348 12.4304,-48.5915 5.4242,-23.7307 21.2446,-23.7307 9.7183,0 15.1425,6.7802 5.4242,6.7802 5.4242,12.6564 0,3.1641 -8.1363,32.319 z"
               id="path15658"
               style="font-size:462.862px;line-height:578.596px;font-family:'Segoe Print';-inkscape-font-specification:'Segoe Print';stroke:none;stroke-width:11.5716;stroke-opacity:1" />
            <path
               id="path16370"
               style="opacity:1;fill:#1b224a;fill-opacity:1;stroke:#000000;stroke-width:0;stroke-miterlimit:4;stroke-dasharray:none;stroke-opacity:1"
               d="m 1662.3459,1904.1178 c -35.4115,-0.8429 -61.7135,41.6957 -53.7983,68.8518 8.2114,28.1729 50.2436,61.7702 54.621,65.7892 l 12.4808,-12.895 -17.4333,-17.3707 c -9.5654,-8.6808 -30.8683,-29.3982 -30.8683,-45.5776 0,-20.9652 14.5263,-37.467 35.4915,-37.467 20.9651,0 36.4801,16.5018 36.4801,37.467 0,12.2109 -12.4632,27.0543 -22.8869,37.3497 l 14.114,15.1759 c 16.6827,-14.9846 31.9398,-40.2819 30.5351,-58.0176 -2.7093,-34.2062 -29.157,-52.6017 -58.7357,-53.3057 z m 1.4824,38.4974 c -10.2223,0 -18.5098,8.2872 -18.5098,18.5095 0,10.2222 18.5098,24.9259 18.5098,24.9259 0,0 18.5081,-14.7037 18.5081,-24.9259 0,-10.2223 -8.2858,-18.5095 -18.5081,-18.5095 z" />
            <path
               id="path25500"
               style="opacity:1;fill:none;stroke:#000000;stroke-width:15.6121;stroke-miterlimit:4;stroke-dasharray:none;stroke-opacity:1"
               d="m 1389.7461,2591.658 a 40.314956,40.314956 0 0 1 -40.315,40.3149 40.314956,40.314956 0 0 1 -40.3149,-40.3149 40.314956,40.314956 0 0 1 40.3149,-40.3149 40.314956,40.314956 0 0 1 40.315,40.3149 z m -118.6543,-55.4331 c -8.0788,5.4124 -7.1796,102.6022 1.3744,112.2405 8.554,9.6384 137.6713,8.3719 153.4717,0.4582 12.0572,-6.039 8.0081,-107.8974 0,-112.6987 -8.1225,-4.8698 -40.7731,0 -40.7731,0 l -12.0137,-24.1962 h -48.4587 l -10.6224,23.7406 c 0,0 -33.1406,-6.1349 -42.9782,0.4556 z" />
          </g>
          <path
             style="fill:none;stroke:#000000;stroke-width:28.575;stroke-linecap:butt;stroke-linejoin:miter;stroke-miterlimit:4;stroke-dasharray:none;stroke-opacity:1"
             d="m 355.86255,2659.3334 66.65835,-53.3267 c 0,0 98.5116,12.1908 118.3186,-1.6665 13.93432,-9.7486 14.1326,-200.2283 -0.83325,-222.4722 -14.96585,-22.2439 -256.55619,-24.6333 -278.29863,0 -21.74244,24.6333 -26.53926,212.3165 -1.66646,222.4722 24.8728,10.1557 95.82139,0 95.82139,0 z"
             id="path22856"
             sodipodi:nodetypes="ccszzzcc"
             transform="matrix(1.9613516,0,0,1.9613516,-3749.294,-1761.0555)" />
          <path
             id="path27798"
             style="opacity:1;fill:none;fill-opacity:1;stroke:#000000;stroke-width:28.575;stroke-miterlimit:4;stroke-dasharray:none;stroke-opacity:1"
             d="m 1551.7561,2295.2693 a 80.080319,80.080319 0 0 0 -80.0797,80.0798 80.080319,80.080319 0 0 0 80.0797,80.0798 80.080319,80.080319 0 0 0 80.0799,-80.0798 80.080319,80.080319 0 0 0 -80.0799,-80.0798 z m -51.22,196.5784 c -87.6106,9.573 -91.755,71.2761 -73.5338,124.7227 l 251.3053,0.93 c 21.8439,-56.5995 8.2103,-112.3005 -55.8439,-125.6527 -41.9725,7.3116 -84.7135,18.8596 -121.9276,0 z"
             transform="matrix(1.9613516,0,0,1.9613516,-3749.294,-1761.0555)" />
          <path
             id="path29434"
             style="fill:none;stroke:#000000;stroke-width:28.575;stroke-linecap:butt;stroke-linejoin:miter;stroke-miterlimit:4;stroke-dasharray:none;stroke-opacity:1"
             d="m 2234.9167,2518.2034 h -91.3772 v 102.6236 m -201.0298,-2.8117 c -21.5636,-18.8508 -21.2894,-276.7408 0,-295.2186 21.2894,-18.4778 291.0013,0 291.0013,0 v 226.3344 l -74.5076,68.8843 c 0,0 -194.1445,19.5375 -216.4937,-1e-4 z"
             sodipodi:nodetypes="cccsscccs"
             transform="matrix(1.9613516,0,0,1.9613516,-3749.294,-1761.0555)" />
          <path
             style="fill:none;stroke:#000000;stroke-width:4.7625px;stroke-linecap:butt;stroke-linejoin:miter;stroke-opacity:1"
             d="m 1989.0791,2389.723 169.6844,-4.7135"
             id="path30189"
             transform="matrix(1.9613516,0,0,1.9613516,-3749.294,-1761.0555)" />
          <path
             style="fill:none;stroke:#000000;stroke-width:4.7625px;stroke-linecap:butt;stroke-linejoin:miter;stroke-opacity:1"
             d="M 1996.1492,2450.9979 H 2111.629"
             id="path30191"
             transform="matrix(1.9613516,0,0,1.9613516,-3749.294,-1761.0555)" />
          <path
             style="fill:none;stroke:#000000;stroke-width:4.7625px;stroke-linecap:butt;stroke-linejoin:miter;stroke-opacity:1"
             d="m 1989.0791,2528.77 h 73.0585"
             id="path30193"
             transform="matrix(1.9613516,0,0,1.9613516,-3749.294,-1761.0555)" />
          <circle
             id="path30197"
             style="fill:#ffffff;stroke:#000000;stroke-width:4.7625;stroke-opacity:1"
             cx="2201.1846"
             cy="2446.2844"
             r="7.1437502"
             transform="matrix(1.9613516,0,0,1.9613516,-3749.294,-1761.0555)" />
          <g
             id="g37318"
             transform="matrix(0.96526292,0,0,0.96526292,-1273.0244,418.21042)"
             style="stroke:#000000;stroke-width:58.0625;stroke-miterlimit:4;stroke-dasharray:none;stroke-opacity:1">
            <circle
               style="opacity:1;fill:none;fill-opacity:1;stroke:#000000;stroke-width:58.0625;stroke-miterlimit:4;stroke-dasharray:none;stroke-opacity:1"
               id="path30333"
               cx="2747.9456"
               cy="2700.8113"
               r="301.66129" />
            <path
               style="fill:#000000;fill-opacity:0.568627;stroke:#000000;stroke-width:58.0625;stroke-linecap:butt;stroke-linejoin:miter;stroke-miterlimit:4;stroke-dasharray:none;stroke-opacity:1"
               d="m 2945.9109,2931.7706 202.6787,199.9175 c 23.5782,-9.7132 34.1267,-21.5981 31.0419,-35.7552 l -199.6318,-202.9646 z"
               id="path30448"
               sodipodi:nodetypes="ccccc" />
          </g>
          <path
             id="path37388"
             style="opacity:1;fill:none;fill-opacity:1;stroke:#000000;stroke-width:11.7681;stroke-linecap:butt;stroke-linejoin:miter;stroke-miterlimit:4;stroke-dasharray:none;stroke-opacity:1"
             d="m 568.60742,558.11133 -13.99609,0.34961 v 18.54492 h -44.08789 v -17.49609 h -14.69727 l 0.34961,18.19531 c 0,0 -19.84023,-4.90182 -27.64258,0 -8.47132,5.32212 -6.49434,124.02413 0,129.46875 6.49434,5.44462 114.84232,7.27664 124.56836,0 9.72605,-7.27664 11.50381,-117.30538 2.44922,-127.71875 -5.48821,-6.31181 -26.94336,-2.44922 -26.94336,-2.44922 z"
             transform="scale(4.7625001)"
             sodipodi:nodetypes="cccccccsssscc" />
          <path
             style="fill:none;fill-opacity:1;stroke:#000000;stroke-width:37.3637;stroke-linecap:butt;stroke-linejoin:miter;stroke-miterlimit:4;stroke-dasharray:none;stroke-opacity:1"
             d="m 2366.4744,3037.692 119.985,129.9838 228.3049,-221.6391 -48.3273,-56.6596 -174.9782,168.3124 -76.6571,-69.9913 z"
             id="path45359"
             sodipodi:nodetypes="ccccccc" />
          <text
             xml:space="preserve"
             style="font-style:normal;font-weight:normal;font-size:274.001px;line-height:1.25;font-family:sans-serif;fill:#000000;fill-opacity:1;stroke:none;stroke-width:261.759;stroke-opacity:1"
             x="-1772.222"
             y="4026.156"
             id="text53229"><tspan
               sodipodi:role="line"
               id="tspan53227"
               style="font-size:274.001px;fill:#000000;fill-opacity:1;stroke:none;stroke-width:261.759;stroke-opacity:1"
               x="-1772.222"
               y="4026.156">More than You Think</tspan></text>
        </g>
      </g>
    </g>
  </g>
</svg>
