<?xml version="1.0" encoding="UTF-8" standalone="no"?>
<!-- Created with Inkscape (http://www.inkscape.org/) -->

<svg
   width="720"
   height="720"
   viewBox="0 0 3429 3429.0002"
   version="1.1"
   id="svg5"
   sodipodi:docname="logo.svg"
   inkscape:version="1.1.1 (3bf5ae0d25, 2021-09-20)"
   xmlns:inkscape="http://www.inkscape.org/namespaces/inkscape"
   xmlns:sodipodi="http://sodipodi.sourceforge.net/DTD/sodipodi-0.dtd"
   xmlns="http://www.w3.org/2000/svg"
   xmlns:svg="http://www.w3.org/2000/svg">
  <sodipodi:namedview
     id="namedview7"
     pagecolor="#ffffff"
     bordercolor="#666666"
     borderopacity="1.0"
     inkscape:pageshadow="2"
     inkscape:pageopacity="0.0"
     inkscape:pagecheckerboard="0"
     inkscape:document-units="px"
     showgrid="false"
     units="px"
     inkscape:snap-grids="true"
     inkscape:snap-global="true"
     inkscape:zoom="0.71446409"
     inkscape:cx="214.84635"
     inkscape:cy="325.41873"
     inkscape:window-width="1920"
     inkscape:window-height="991"
     inkscape:window-x="-9"
     inkscape:window-y="-9"
     inkscape:window-maximized="1"
     inkscape:current-layer="layer1"
     width="720px" />
  <defs
     id="defs2" />
  <g
     inkscape:label="Layer 1"
     inkscape:groupmode="layer"
     id="layer1">
    <path
       id="path35114"
       style="opacity:1;fill:#1b224a;stroke:#000000;stroke-width:0;stroke-miterlimit:4;stroke-dasharray:none"
       d="M 1675.1034,246.38461 C 902.78408,228.00227 329.14187,1155.7612 501.77033,1748.0325 680.86091,2362.4777 1597.5771,3095.2323 1693.0465,3182.8845 l 272.2066,-281.2387 -380.2186,-378.8513 c -208.6194,-189.3282 -673.23339,-641.1709 -673.23339,-994.0417 0,-457.2461 316.81649,-817.15005 774.06439,-817.15005 457.2461,0 795.6259,359.90395 795.6259,817.15005 0,266.3181 -271.8221,590.0505 -499.1603,814.5922 l 307.8231,330.9845 c 363.848,-326.8134 696.6041,-878.5434 665.9687,-1265.3554 C 2897.0312,662.94086 2320.2129,261.73832 1675.1034,246.38461 Z m 32.3329,839.62319 c -222.9473,0 -403.6963,180.7415 -403.6963,403.687 0,222.9454 403.6963,543.6319 403.6963,543.6319 0,0 403.6591,-320.6865 403.6591,-543.6319 0,-222.9455 -180.7136,-403.687 -403.6591,-403.687 z" />
  </g>
</svg>
