<?xml version="1.0" encoding="UTF-8" standalone="no"?>
<!-- Created with Inkscape (http://www.inkscape.org/) -->

<svg
   width="1080"
   height="1080"
   viewBox="0 0 74066.4 74066.404"
   version="1.1"
   id="svg5"
   sodipodi:docname="icon_dark.svg"
   inkscape:version="1.1.1 (3bf5ae0d25, 2021-09-20)"
   inkscape:export-filename="C:\Users\kedar\aoight\public\logo.png"
   inkscape:export-xdpi="96"
   inkscape:export-ydpi="96"
   xmlns:inkscape="http://www.inkscape.org/namespaces/inkscape"
   xmlns:sodipodi="http://sodipodi.sourceforge.net/DTD/sodipodi-0.dtd"
   xmlns="http://www.w3.org/2000/svg"
   xmlns:svg="http://www.w3.org/2000/svg">
  <sodipodi:namedview
     id="namedview7"
     pagecolor="#ffffff"
     bordercolor="#666666"
     borderopacity="1.0"
     inkscape:pageshadow="2"
     inkscape:pageopacity="0.0"
     inkscape:pagecheckerboard="0"
     inkscape:document-units="px"
     showgrid="false"
     units="px"
     inkscape:snap-grids="true"
     inkscape:snap-global="true"
     inkscape:zoom="0.5052024"
     inkscape:cx="242.47707"
     inkscape:cy="543.34659"
     inkscape:window-width="1920"
     inkscape:window-height="991"
     inkscape:window-x="-9"
     inkscape:window-y="-9"
     inkscape:window-maximized="1"
     inkscape:current-layer="layer2"
     width="720px" />
  <defs
     id="defs2">
    <inkscape:path-effect
       effect="fillet_chamfer"
       id="path-effect2224"
       is_visible="true"
       lpeversion="1"
       satellites_param="F,0,0,1,0,6244.3886,0,1 @ F,0,0,1,0,6787.3786,0,1 @ F,0,0,1,0,5565.6507,0,1 @ F,0,0,1,0,5429.9031,0,1"
       unit="px"
       method="auto"
       mode="F"
       radius="2"
       chamfer_steps="1"
       flexible="false"
       use_knot_distance="true"
       apply_no_radius="true"
       apply_with_radius="true"
       only_selected="false"
       hide_knots="false" />
  </defs>
  <g
     inkscape:groupmode="layer"
     id="layer2"
     inkscape:label="Layer 2"
     style="display:inline">
    <path
       id="rect1372"
       style="opacity:1;fill:#541bb1;fill-opacity:1;stroke-width:0"
       d="M 7172.6516,928.26295 H 66350.76 A 6787.3786,6787.3786 45 0 1 73138.139,7715.6415 V 67572.488 a 5565.6507,5565.6507 135 0 1 -5565.651,5565.651 H 6358.1661 A 5429.9031,5429.9031 45 0 1 928.26305,67708.236 V 7172.6516 A 6244.3886,6244.3886 135 0 1 7172.6516,928.26295 Z"
       sodipodi:nodetypes="ccccc"
       inkscape:path-effect="#path-effect2224"
       inkscape:original-d="M 928.26305,928.26295 H 73138.139 V 73138.139 H 928.26305 Z" />
  </g>
  <g
     inkscape:label="Layer 1"
     inkscape:groupmode="layer"
     id="layer1"
     style="display:inline">
    <path
       id="path35114"
       style="opacity:1;fill:#ffffff;fill-opacity:1;stroke:#000000;stroke-width:0;stroke-miterlimit:4;stroke-dasharray:none"
       d="m 36563.261,19520.903 c -9212.549,-219.272 -16055.196,10847.429 -13996.016,17912.287 2136.275,7329.371 13071.25,16069.971 14210.056,17115.519 l 3246.988,-3354.724 -4535.4,-4519.104 C 33000.382,44416.496 27458.266,39026.72 27458.266,34817.54 c 0,-5454.222 3779.132,-9747.309 9233.375,-9747.309 5454.227,0 9490.551,4293.087 9490.551,9747.309 0,3176.755 -3242.408,7038.366 -5954.191,9716.797 l 3671.843,3948.118 C 48239.978,44584.091 52209.229,38002.822 51843.806,33388.766 51138.932,24489.767 44258.401,19704.051 36563.261,19520.903 Z m 385.678,10015.388 c -2659.405,0 -4815.455,2155.954 -4815.455,4815.346 0,2659.385 4815.455,6484.676 4815.455,6484.676 0,0 4815.018,-3825.291 4815.018,-6484.676 0,-2659.392 -2155.625,-4815.346 -4815.018,-4815.346 z" />
    <path
       style="fill:none;fill-opacity:1;stroke:#ffffff;stroke-width:342.9;stroke-linecap:butt;stroke-linejoin:miter;stroke-miterlimit:4;stroke-dasharray:none;stroke-opacity:1"
       d="M 1085.9807,17918.68 19411.904,1221.7282"
       id="path965" />
    <path
       style="fill:none;stroke:#ffffff;stroke-width:342.9;stroke-linecap:butt;stroke-linejoin:miter;stroke-miterlimit:4;stroke-dasharray:none;stroke-opacity:1"
       d="M 1221.7282,21719.612 23755.826,1085.9807"
       id="path1178" />
  </g>
</svg>
