<?xml version="1.0" encoding="UTF-8" standalone="no"?>
<!-- Created with Inkscape (http://www.inkscape.org/) -->

<svg
   width="1000"
   height="1000"
   viewBox="0 0 85725 85725.005"
   version="1.1"
   id="svg5"
   sodipodi:docname="icon_green.svg"
   inkscape:version="1.1.1 (3bf5ae0d25, 2021-09-20)"
   inkscape:export-filename="C:\Users\kedar\aoight\src\assests\icon_green.png"
   inkscape:export-xdpi="96"
   inkscape:export-ydpi="96"
   xmlns:inkscape="http://www.inkscape.org/namespaces/inkscape"
   xmlns:sodipodi="http://sodipodi.sourceforge.net/DTD/sodipodi-0.dtd"
   xmlns:xlink="http://www.w3.org/1999/xlink"
   xmlns="http://www.w3.org/2000/svg"
   xmlns:svg="http://www.w3.org/2000/svg">
  <sodipodi:namedview
     id="namedview7"
     pagecolor="#ffffff"
     bordercolor="#666666"
     borderopacity="1.0"
     inkscape:pageshadow="2"
     inkscape:pageopacity="0.0"
     inkscape:pagecheckerboard="0"
     inkscape:document-units="px"
     showgrid="false"
     units="px"
     inkscape:snap-grids="true"
     inkscape:snap-global="true"
     inkscape:zoom="0.5052024"
     inkscape:cx="509.69671"
     inkscape:cy="549.2848"
     inkscape:window-width="1920"
     inkscape:window-height="991"
     inkscape:window-x="-9"
     inkscape:window-y="-9"
     inkscape:window-maximized="1"
     inkscape:current-layer="layer1"
     width="720px" />
  <defs
     id="defs2">
    <linearGradient
       inkscape:collect="always"
       id="linearGradient4197">
      <stop
         style="stop-color:#182676;stop-opacity:1;"
         offset="0"
         id="stop4193" />
      <stop
         style="stop-color:#d661cd;stop-opacity:0"
         offset="1"
         id="stop4195" />
    </linearGradient>
    <linearGradient
       id="linearGradient3751"
       inkscape:swatch="solid">
      <stop
         style="stop-color:#061985;stop-opacity:1;"
         offset="0"
         id="stop3749" />
    </linearGradient>
    <linearGradient
       inkscape:collect="always"
       xlink:href="#linearGradient4197"
       id="linearGradient4448"
       gradientUnits="userSpaceOnUse"
       x1="58833.312"
       y1="69491.781"
       x2="8981.3994"
       y2="2307.9121" />
  </defs>
  <g
     inkscape:label="Layer 1"
     inkscape:groupmode="layer"
     id="layer1">
    <path
       id="path35114"
       style="opacity:1;mix-blend-mode:screen;fill:url(#linearGradient4448);fill-opacity:1;stroke:#000000;stroke-width:0;stroke-miterlimit:4;stroke-dasharray:none"
       d="M 41769.49,2131.4541 C 20342.446,1621.4589 4427.4518,27360.984 9216.815,43792.818 14185.462,60839.841 39618.619,81169.211 42267.299,83601.013 L 49819.335,75798.393 39270.64,65287.632 C 33482.753,60034.955 20592.612,47499.138 20592.612,37709.174 c 0,-12685.727 8789.682,-22670.817 21475.459,-22670.817 12685.728,0 22073.657,9985.09 22073.657,22670.817 0,7388.667 -7541.368,16370.222 -13848.585,22599.854 l 8540.171,9182.755 C 68927.827,60424.75 78159.733,45117.683 77309.792,34386.063 75670.366,13688.293 59667.255,2557.4238 41769.49,2131.4541 Z m 897.036,23294.3079 c -6185.397,0 -11200.054,5014.449 -11200.054,11199.797 0,6185.344 11200.054,15082.394 11200.054,15082.394 0,0 11199.023,-8897.05 11199.023,-15082.394 0,-6185.348 -5013.675,-11199.797 -11199.023,-11199.797 z" />
  </g>
</svg>
